<svg version="1.1" viewBox="0.0 0.0 960.0 720.0" fill="none" stroke="none" stroke-linecap="square" stroke-miterlimit="10" xmlns:xlink="http://www.w3.org/1999/xlink" xmlns="http://www.w3.org/2000/svg"><clipPath id="p.0"><path d="m0 0l960.0 0l0 720.0l-960.0 0l0 -720.0z" clip-rule="nonzero"/></clipPath><g clip-path="url(#p.0)"><path fill="#000000" fill-opacity="0.0" d="m0 0l960.0 0l0 720.0l-960.0 0z" fill-rule="evenodd"/><path fill="#cfe2f3" d="m116.732285 273.61942l211.05513 0l0 45.763794l-211.05513 0z" fill-rule="evenodd"/><path stroke="#000000" stroke-width="1.0" stroke-linejoin="round" stroke-linecap="butt" d="m116.732285 273.61942l211.05513 0l0 45.763794l-211.05513 0z" fill-rule="evenodd"/><path fill="#000000" d="m185.12985 292.5813l0 -10.484375l1.390625 0l0 5.203125l5.203125 -5.203125l1.875 0l-4.390625 4.25l4.59375 6.234375l-1.828125 0l-3.75 -5.3125l-1.703125 1.671875l0 3.640625l-1.390625 0zm12.822479 0l-4.0625 -10.484375l1.5 0l2.734375 7.609375q0.328125 0.921875 0.546875 1.71875q0.25 -0.859375 0.5625 -1.71875l2.84375 -7.609375l1.40625 0l-4.109375 10.484375l-1.421875 0zm6.7443542 0l0 -10.484375l2.078125 0l2.484375 7.421875q0.34375 1.03125 0.5 1.546875q0.1875 -0.5625 0.5625 -1.671875l2.515625 -7.296875l1.859375 0l0 10.484375l-1.328125 0l0 -8.78125l-3.046875 8.78125l-1.265625 0l-3.03125 -8.9375l0 8.9375l-1.328125 0z" fill-rule="nonzero"/><path fill="#000000" d="m222.3742 285.9563l-2.578125 0.125l0 -0.9375l2.578125 -0.0625l0 -0.9375l-3.28125 0l0 4.921875q0 2.21875 -1.515625 4.515625l-1.125 -0.875q1.46875 -1.890625 1.46875 -4.28125l0 -5.21875l4.453125 0l0 -2.875l1.109375 0q0.46875 0.0625 0.0625 0.359375l0 0.8125l4.046875 0l0 0.9375l-4.046875 0l0 0.765625l5.984375 0q-0.125 1.234375 -0.46875 2.28125l-1.171875 -0.234375q0.234375 -0.765625 0.28125 -1.109375l-4.625 0l0 0.8125l3.578125 -0.109375l0 0.9375l-3.578125 0.0625l0 0.40625q0 0.40625 0.40625 0.40625l2.9375 0q0.46875 0 0.53125 -0.234375l0.171875 -0.53125l1.109375 0.234375l-0.234375 0.765625q-0.234375 0.703125 -1.046875 0.703125l-3.984375 0q-1.0625 0 -1.0625 -1.0l0 -0.640625zm6.21875 2.875q0.171875 0.171875 -0.125 0.34375q-0.296875 1.234375 -0.9375 2.703125l-1.171875 -0.46875q0.59375 -1.53125 0.875 -2.984375l1.359375 0.40625zm-4.28125 3.515625l0 -4.15625l1.109375 0q0.46875 0.046875 0.0625 0.34375l0 3.8125l4.15625 0l0 1.109375l-10.84375 0l0 -1.109375l3.46875 0l0 -4.15625l1.109375 0q0.46875 0.046875 0.0625 0.34375l0 3.8125l0.875 0zm-3.875 -0.703125q-0.40625 -1.46875 -0.875 -2.578125l1.171875 -0.53125q0.703125 1.34375 1.0 2.578125l-1.296875 0.53125z" fill-rule="nonzero"/><path fill="#000000" d="m234.63983 292.30005q0 0.6875 -0.40625 0.90625q-0.390625 0.234375 -1.59375 0.515625q-0.109375 -0.625 -0.515625 -1.140625q1.5 -0.0625 1.5 -0.625l0 -3.671875q-1.203125 0.578125 -1.71875 0.859375q-0.234375 -0.6875 -0.515625 -1.078125q0.625 -0.171875 2.234375 -0.8125l0 -2.796875q-1.15625 0 -2.015625 0.046875l0 -1.078125q0.8125 0.109375 2.015625 0.109375q0 -1.546875 -0.0625 -2.921875l1.203125 0q-0.125 1.546875 -0.125 2.921875q0.8125 0 1.5 -0.0625l0 1.03125q-0.8125 -0.046875 -1.5 -0.046875l0 2.453125q1.09375 -0.453125 1.4375 -0.734375q0 0.5625 0.0625 1.078125q-0.46875 0.171875 -1.5 0.640625l0 4.40625zm7.5 -11.28125q0.75 0.0625 1.265625 0.109375q-0.171875 0.796875 -0.125 3.8125q0.0625 3.0 -0.453125 4.71875q1.375 1.65625 2.1875 3.03125q-0.515625 0.40625 -0.984375 0.8125q-0.5625 -1.15625 -1.65625 -2.75q-0.5625 0.796875 -1.40625 1.578125q-0.828125 0.765625 -2.546875 1.734375q-0.34375 -0.453125 -0.90625 -0.90625q1.140625 -0.515625 2.21875 -1.3125q1.09375 -0.8125 1.640625 -1.671875q0.546875 -0.859375 0.71875 -2.515625q0.171875 -1.65625 0.046875 -6.640625zm-5.609375 9.953125q0.40625 -0.390625 0.40625 -1.140625l0 -5.203125q0 -1.03125 -0.0625 -2.125l1.203125 0q-0.109375 0.96875 -0.109375 2.0625l0 5.328125q1.484375 -1.546875 2.125 -2.34375q0.21875 0.625 0.5625 1.078125q-0.625 0.515625 -3.203125 3.265625l-0.921875 -0.921875zm2.984375 -10.0625q1.3125 2.453125 1.78125 3.546875q-0.75 0.34375 -1.09375 0.5625q-0.578125 -1.3125 -1.65625 -3.59375q0.453125 -0.171875 0.96875 -0.515625z" fill-rule="nonzero"/><path fill="#000000" d="m250.6242 292.7063q2.171875 -1.0 2.171875 -4.40625l0 -6.734375l4.5625 0l0 10.140625q0 0.46875 0.421875 0.46875l0.34375 0q0.296875 0 0.359375 -0.421875l0.109375 -1.21875l1.234375 0.46875l-0.234375 1.453125q-0.125 0.828125 -0.9375 0.828125l-1.40625 0q-1.0625 0 -1.0625 -1.0l0 -9.609375l-2.21875 0l0 5.5625q0 4.21875 -2.515625 5.578125l-0.828125 -1.109375zm-0.34375 1.109375l-1.171875 0l0 -5.984375q-0.828125 1.875 -2.0625 3.21875l-0.75 -1.28125q2.34375 -2.40625 2.6875 -4.984375l-2.34375 0l0 -1.109375l2.46875 0l0 -3.109375l1.109375 0q0.578125 0.0625 0.0625 0.359375l0 2.75l2.046875 0l0 1.109375l-2.046875 0l0 1.765625q1.046875 0.46875 2.109375 1.28125l-0.65625 1.34375q-0.703125 -0.75 -1.453125 -1.40625l0 6.046875z" fill-rule="nonzero"/><path fill="#000000" d="m172.69835 310.5813l-1.28125 0l0 -8.203125q-0.46875 0.4375 -1.21875 0.890625q-0.75 0.4375 -1.359375 0.65625l0 -1.25q1.078125 -0.5 1.890625 -1.21875q0.8125 -0.734375 1.140625 -1.40625l0.828125 0l0 10.53125zm3.4948578 -2.421875l1.25 -0.125q0.15625 0.875 0.59375 1.28125q0.4375 0.390625 1.140625 0.390625q0.59375 0 1.03125 -0.265625q0.453125 -0.28125 0.734375 -0.734375q0.296875 -0.453125 0.484375 -1.21875q0.1875 -0.78125 0.1875 -1.59375q0 -0.078125 0 -0.25q-0.390625 0.609375 -1.0625 1.0q-0.65625 0.375 -1.4375 0.375q-1.3125 0 -2.21875 -0.9375q-0.890625 -0.953125 -0.890625 -2.484375q0 -1.609375 0.9375 -2.578125q0.9375 -0.96875 2.359375 -0.96875q1.03125 0 1.875 0.546875q0.84375 0.546875 1.28125 1.578125q0.4375 1.015625 0.4375 2.953125q0 2.0 -0.4375 3.203125q-0.421875 1.1875 -1.296875 1.8125q-0.859375 0.609375 -2.015625 0.609375q-1.234375 0 -2.015625 -0.671875q-0.78125 -0.6875 -0.9375 -1.921875zm5.28125 -4.640625q0 -1.109375 -0.59375 -1.75q-0.59375 -0.65625 -1.421875 -0.65625q-0.859375 0 -1.5 0.703125q-0.625 0.703125 -0.625 1.8125q0 1.0 0.59375 1.640625q0.609375 0.625 1.5 0.625q0.890625 0 1.46875 -0.625q0.578125 -0.640625 0.578125 -1.75zm9.447983 5.828125l0 1.234375l-6.9375 0q-0.015625 -0.46875 0.15625 -0.890625q0.265625 -0.71875 0.84375 -1.40625q0.59375 -0.6875 1.6875 -1.578125q1.71875 -1.40625 2.3125 -2.21875q0.609375 -0.828125 0.609375 -1.5625q0 -0.765625 -0.5625 -1.28125q-0.546875 -0.53125 -1.421875 -0.53125q-0.921875 0 -1.484375 0.5625q-0.5625 0.5625 -0.5625 1.546875l-1.328125 -0.140625q0.140625 -1.484375 1.015625 -2.25q0.890625 -0.78125 2.390625 -0.78125q1.515625 0 2.390625 0.84375q0.875 0.828125 0.875 2.0625q0 0.640625 -0.265625 1.25q-0.25 0.59375 -0.84375 1.265625q-0.59375 0.671875 -1.984375 1.859375q-1.15625 0.96875 -1.484375 1.3125q-0.328125 0.34375 -0.546875 0.703125l5.140625 0zm2.1042328 1.234375l0 -1.46875l1.46875 0l0 1.46875l-1.46875 0zm8.196976 0l-1.28125 0l0 -8.203125q-0.46875 0.4375 -1.21875 0.890625q-0.75 0.4375 -1.359375 0.65625l0 -1.25q1.078125 -0.5 1.890625 -1.21875q0.8125 -0.734375 1.140625 -1.40625l0.828125 0l0 10.53125zm9.994858 -7.921875l-1.28125 0.09375q-0.171875 -0.75 -0.484375 -1.09375q-0.53125 -0.546875 -1.296875 -0.546875q-0.609375 0 -1.078125 0.34375q-0.609375 0.4375 -0.96875 1.296875q-0.34375 0.84375 -0.359375 2.421875q0.46875 -0.71875 1.140625 -1.0625q0.671875 -0.34375 1.40625 -0.34375q1.296875 0 2.203125 0.953125q0.90625 0.953125 0.90625 2.453125q0 0.984375 -0.4375 1.84375q-0.421875 0.84375 -1.171875 1.296875q-0.734375 0.4375 -1.6875 0.4375q-1.609375 0 -2.625 -1.171875q-1.015625 -1.1875 -1.015625 -3.90625q0 -3.046875 1.125 -4.421875q0.984375 -1.203125 2.640625 -1.203125q1.234375 0 2.03125 0.703125q0.796875 0.6875 0.953125 1.90625zm-5.265625 4.515625q0 0.671875 0.28125 1.28125q0.28125 0.609375 0.78125 0.9375q0.515625 0.3125 1.078125 0.3125q0.8125 0 1.390625 -0.65625q0.59375 -0.671875 0.59375 -1.796875q0 -1.09375 -0.578125 -1.71875q-0.578125 -0.625 -1.453125 -0.625q-0.875 0 -1.484375 0.625q-0.609375 0.625 -0.609375 1.640625zm8.713608 -2.28125q-0.796875 -0.296875 -1.1875 -0.84375q-0.390625 -0.546875 -0.390625 -1.296875q0 -1.140625 0.8125 -1.921875q0.828125 -0.78125 2.203125 -0.78125q1.375 0 2.203125 0.796875q0.84375 0.796875 0.84375 1.9375q0 0.734375 -0.390625 1.28125q-0.375 0.53125 -1.15625 0.828125q0.96875 0.3125 1.46875 1.015625q0.5 0.703125 0.5 1.671875q0 1.34375 -0.953125 2.265625q-0.9375 0.90625 -2.5 0.90625q-1.546875 0 -2.5 -0.90625q-0.953125 -0.921875 -0.953125 -2.296875q0 -1.03125 0.515625 -1.71875q0.515625 -0.6875 1.484375 -0.9375zm-0.265625 -2.1875q0 0.75 0.484375 1.21875q0.484375 0.46875 1.25 0.46875q0.734375 0 1.203125 -0.46875q0.484375 -0.46875 0.484375 -1.140625q0 -0.71875 -0.5 -1.1875q-0.484375 -0.484375 -1.203125 -0.484375q-0.734375 0 -1.234375 0.46875q-0.484375 0.46875 -0.484375 1.125zm-0.40625 4.84375q0 0.5625 0.25 1.078125q0.265625 0.5 0.78125 0.796875q0.515625 0.28125 1.109375 0.28125q0.921875 0 1.515625 -0.59375q0.609375 -0.59375 0.609375 -1.515625q0 -0.9375 -0.625 -1.53125q-0.609375 -0.609375 -1.546875 -0.609375q-0.90625 0 -1.5 0.609375q-0.59375 0.59375 -0.59375 1.484375zm7.557358 3.03125l0 -1.46875l1.46875 0l0 1.46875l-1.46875 0zm8.196976 0l-1.28125 0l0 -8.203125q-0.46875 0.4375 -1.21875 0.890625q-0.75 0.4375 -1.359375 0.65625l0 -1.25q1.078125 -0.5 1.890625 -1.21875q0.8125 -0.734375 1.140625 -1.40625l0.828125 0l0 10.53125zm10.072983 -1.234375l0 1.234375l-6.9375 0q-0.015625 -0.46875 0.15625 -0.890625q0.265625 -0.71875 0.84375 -1.40625q0.59375 -0.6875 1.6875 -1.578125q1.71875 -1.40625 2.3125 -2.21875q0.609375 -0.828125 0.609375 -1.5625q0 -0.765625 -0.5625 -1.28125q-0.546875 -0.53125 -1.421875 -0.53125q-0.921875 0 -1.484375 0.5625q-0.5625 0.5625 -0.5625 1.546875l-1.328125 -0.140625q0.140625 -1.484375 1.015625 -2.25q0.890625 -0.78125 2.390625 -0.78125q1.515625 0 2.390625 0.84375q0.875 0.828125 0.875 2.0625q0 0.640625 -0.265625 1.25q-0.25 0.59375 -0.84375 1.265625q-0.59375 0.671875 -1.984375 1.859375q-1.15625 0.96875 -1.484375 1.3125q-0.328125 0.34375 -0.546875 0.703125l5.140625 0zm8.151108 0l0 1.234375l-6.9375 0q-0.015625 -0.46875 0.15625 -0.890625q0.265625 -0.71875 0.84375 -1.40625q0.59375 -0.6875 1.6875 -1.578125q1.71875 -1.40625 2.3125 -2.21875q0.609375 -0.828125 0.609375 -1.5625q0 -0.765625 -0.5625 -1.28125q-0.546875 -0.53125 -1.421875 -0.53125q-0.921875 0 -1.484375 0.5625q-0.5625 0.5625 -0.5625 1.546875l-1.328125 -0.140625q0.140625 -1.484375 1.015625 -2.25q0.890625 -0.78125 2.390625 -0.78125q1.515625 0 2.390625 0.84375q0.875 0.828125 0.875 2.0625q0 0.640625 -0.265625 1.25q-0.25 0.59375 -0.84375 1.265625q-0.59375 0.671875 -1.984375 1.859375q-1.15625 0.96875 -1.484375 1.3125q-0.328125 0.34375 -0.546875 0.703125l5.140625 0zm2.104248 1.234375l0 -1.46875l1.46875 0l0 1.46875l-1.46875 0zm10.11882 -1.234375l0 1.234375l-6.9374847 0q-0.015625 -0.46875 0.15625 -0.890625q0.265625 -0.71875 0.84375 -1.40625q0.59375 -0.6875 1.6875 -1.578125q1.7187347 -1.40625 2.3124847 -2.21875q0.609375 -0.828125 0.609375 -1.5625q0 -0.765625 -0.5625 -1.28125q-0.546875 -0.53125 -1.421875 -0.53125q-0.92185974 0 -1.4843597 0.5625q-0.5625 0.5625 -0.5625 1.546875l-1.328125 -0.140625q0.140625 -1.484375 1.015625 -2.25q0.890625 -0.78125 2.3906097 -0.78125q1.515625 0 2.390625 0.84375q0.875 0.828125 0.875 2.0625q0 0.640625 -0.265625 1.25q-0.25 0.59375 -0.84375 1.265625q-0.59375 0.671875 -1.984375 1.859375q-1.1562347 0.96875 -1.4843597 1.3125q-0.328125 0.34375 -0.546875 0.703125l5.1406097 0zm5.510498 1.234375l0 -2.515625l-4.546875 0l0 -1.171875l4.78125 -6.796875l1.0625 0l0 6.796875l1.40625 0l0 1.171875l-1.40625 0l0 2.515625l-1.296875 0zm0 -3.6875l0 -4.734375l-3.28125 4.734375l3.28125 0zm8.151093 3.6875l0 -2.515625l-4.546875 0l0 -1.171875l4.78125 -6.796875l1.0625 0l0 6.796875l1.40625 0l0 1.171875l-1.40625 0l0 2.515625l-1.296875 0zm0 -3.6875l0 -4.734375l-3.28125 4.734375l3.28125 0z" fill-rule="nonzero"/><path fill="#cfe2f3" d="m116.732285 191.1916l211.05513 0l0 45.76378l-211.05513 0z" fill-rule="evenodd"/><path stroke="#000000" stroke-width="1.0" stroke-linejoin="round" stroke-linecap="butt" d="m116.732285 191.1916l211.05513 0l0 45.76378l-211.05513 0z" fill-rule="evenodd"/><path fill="#000000" d="m185.12985 210.15349l0 -10.484375l1.390625 0l0 5.203125l5.203125 -5.203125l1.875 0l-4.390625 4.25l4.59375 6.234375l-1.828125 0l-3.75 -5.3125l-1.703125 1.671875l0 3.640625l-1.390625 0zm12.822479 0l-4.0625 -10.484375l1.5 0l2.734375 7.609375q0.328125 0.921875 0.546875 1.71875q0.25 -0.859375 0.5625 -1.71875l2.84375 -7.609375l1.40625 0l-4.109375 10.484375l-1.421875 0zm6.7443542 0l0 -10.484375l2.078125 0l2.484375 7.421875q0.34375 1.03125 0.5 1.546875q0.1875 -0.5625 0.5625 -1.671875l2.515625 -7.296875l1.859375 0l0 10.484375l-1.328125 0l0 -8.78125l-3.046875 8.78125l-1.265625 0l-3.03125 -8.9375l0 8.9375l-1.328125 0z" fill-rule="nonzero"/><path fill="#000000" d="m222.3742 203.52849l-2.578125 0.125l0 -0.9375l2.578125 -0.0625l0 -0.9375l-3.28125 0l0 4.921875q0 2.21875 -1.515625 4.515625l-1.125 -0.875q1.46875 -1.890625 1.46875 -4.28125l0 -5.21875l4.453125 0l0 -2.875l1.109375 0q0.46875 0.0625 0.0625 0.359375l0 0.8125l4.046875 0l0 0.9375l-4.046875 0l0 0.765625l5.984375 0q-0.125 1.234375 -0.46875 2.28125l-1.171875 -0.234375q0.234375 -0.765625 0.28125 -1.109375l-4.625 0l0 0.8125l3.578125 -0.109375l0 0.9375l-3.578125 0.0625l0 0.40625q0 0.40625 0.40625 0.40625l2.9375 0q0.46875 0 0.53125 -0.234375l0.171875 -0.53125l1.109375 0.234375l-0.234375 0.765625q-0.234375 0.703125 -1.046875 0.703125l-3.984375 0q-1.0625 0 -1.0625 -1.0l0 -0.640625zm6.21875 2.875q0.171875 0.171875 -0.125 0.34375q-0.296875 1.234375 -0.9375 2.703125l-1.171875 -0.46875q0.59375 -1.53125 0.875 -2.984375l1.359375 0.40625zm-4.28125 3.515625l0 -4.15625l1.109375 0q0.46875 0.046875 0.0625 0.34375l0 3.8125l4.15625 0l0 1.109375l-10.84375 0l0 -1.109375l3.46875 0l0 -4.15625l1.109375 0q0.46875 0.046875 0.0625 0.34375l0 3.8125l0.875 0zm-3.875 -0.703125q-0.40625 -1.46875 -0.875 -2.578125l1.171875 -0.53125q0.703125 1.34375 1.0 2.578125l-1.296875 0.53125z" fill-rule="nonzero"/><path fill="#000000" d="m234.63983 209.87224q0 0.6875 -0.40625 0.90625q-0.390625 0.234375 -1.59375 0.515625q-0.109375 -0.625 -0.515625 -1.140625q1.5 -0.0625 1.5 -0.625l0 -3.671875q-1.203125 0.578125 -1.71875 0.859375q-0.234375 -0.6875 -0.515625 -1.078125q0.625 -0.171875 2.234375 -0.8125l0 -2.796875q-1.15625 0 -2.015625 0.046875l0 -1.078125q0.8125 0.109375 2.015625 0.109375q0 -1.546875 -0.0625 -2.921875l1.203125 0q-0.125 1.546875 -0.125 2.921875q0.8125 0 1.5 -0.0625l0 1.03125q-0.8125 -0.046875 -1.5 -0.046875l0 2.453125q1.09375 -0.453125 1.4375 -0.734375q0 0.5625 0.0625 1.078125q-0.46875 0.171875 -1.5 0.640625l0 4.40625zm7.5 -11.28125q0.75 0.0625 1.265625 0.109375q-0.171875 0.796875 -0.125 3.8125q0.0625 3.0 -0.453125 4.71875q1.375 1.65625 2.1875 3.03125q-0.515625 0.40625 -0.984375 0.8125q-0.5625 -1.15625 -1.65625 -2.75q-0.5625 0.796875 -1.40625 1.578125q-0.828125 0.765625 -2.546875 1.734375q-0.34375 -0.453125 -0.90625 -0.90625q1.140625 -0.515625 2.21875 -1.3125q1.09375 -0.8125 1.640625 -1.671875q0.546875 -0.859375 0.71875 -2.515625q0.171875 -1.65625 0.046875 -6.640625zm-5.609375 9.953125q0.40625 -0.390625 0.40625 -1.140625l0 -5.203125q0 -1.03125 -0.0625 -2.125l1.203125 0q-0.109375 0.96875 -0.109375 2.0625l0 5.328125q1.484375 -1.546875 2.125 -2.34375q0.21875 0.625 0.5625 1.078125q-0.625 0.515625 -3.203125 3.265625l-0.921875 -0.921875zm2.984375 -10.0625q1.3125 2.453125 1.78125 3.546875q-0.75 0.34375 -1.09375 0.5625q-0.578125 -1.3125 -1.65625 -3.59375q0.453125 -0.171875 0.96875 -0.515625z" fill-rule="nonzero"/><path fill="#000000" d="m250.6242 210.27849q2.171875 -1.0 2.171875 -4.40625l0 -6.734375l4.5625 0l0 10.140625q0 0.46875 0.421875 0.46875l0.34375 0q0.296875 0 0.359375 -0.421875l0.109375 -1.21875l1.234375 0.46875l-0.234375 1.453125q-0.125 0.828125 -0.9375 0.828125l-1.40625 0q-1.0625 0 -1.0625 -1.0l0 -9.609375l-2.21875 0l0 5.5625q0 4.21875 -2.515625 5.578125l-0.828125 -1.109375zm-0.34375 1.109375l-1.171875 0l0 -5.984375q-0.828125 1.875 -2.0625 3.21875l-0.75 -1.28125q2.34375 -2.40625 2.6875 -4.984375l-2.34375 0l0 -1.109375l2.46875 0l0 -3.109375l1.109375 0q0.578125 0.0625 0.0625 0.359375l0 2.75l2.046875 0l0 1.109375l-2.046875 0l0 1.765625q1.046875 0.46875 2.109375 1.28125l-0.65625 1.34375q-0.703125 -0.75 -1.453125 -1.40625l0 6.046875z" fill-rule="nonzero"/><path fill="#000000" d="m172.69835 228.15349l-1.28125 0l0 -8.203125q-0.46875 0.4375 -1.21875 0.890625q-0.75 0.4375 -1.359375 0.65625l0 -1.25q1.078125 -0.5 1.890625 -1.21875q0.8125 -0.734375 1.140625 -1.40625l0.828125 0l0 10.53125zm3.4948578 -2.421875l1.25 -0.125q0.15625 0.875 0.59375 1.28125q0.4375 0.390625 1.140625 0.390625q0.59375 0 1.03125 -0.265625q0.453125 -0.28125 0.734375 -0.734375q0.296875 -0.453125 0.484375 -1.21875q0.1875 -0.78125 0.1875 -1.59375q0 -0.078125 0 -0.25q-0.390625 0.609375 -1.0625 1.0q-0.65625 0.375 -1.4375 0.375q-1.3125 0 -2.21875 -0.9375q-0.890625 -0.953125 -0.890625 -2.484375q0 -1.609375 0.9375 -2.578125q0.9375 -0.96875 2.359375 -0.96875q1.03125 0 1.875 0.546875q0.84375 0.546875 1.28125 1.578125q0.4375 1.015625 0.4375 2.953125q0 2.0 -0.4375 3.203125q-0.421875 1.1875 -1.296875 1.8125q-0.859375 0.609375 -2.015625 0.609375q-1.234375 0 -2.015625 -0.671875q-0.78125 -0.6875 -0.9375 -1.921875zm5.28125 -4.640625q0 -1.109375 -0.59375 -1.75q-0.59375 -0.65625 -1.421875 -0.65625q-0.859375 0 -1.5 0.703125q-0.625 0.703125 -0.625 1.8125q0 1.0 0.59375 1.640625q0.609375 0.625 1.5 0.625q0.890625 0 1.46875 -0.625q0.578125 -0.640625 0.578125 -1.75zm9.447983 5.828125l0 1.234375l-6.9375 0q-0.015625 -0.46875 0.15625 -0.890625q0.265625 -0.71875 0.84375 -1.40625q0.59375 -0.6875 1.6875 -1.578125q1.71875 -1.40625 2.3125 -2.21875q0.609375 -0.828125 0.609375 -1.5625q0 -0.765625 -0.5625 -1.28125q-0.546875 -0.53125 -1.421875 -0.53125q-0.921875 0 -1.484375 0.5625q-0.5625 0.5625 -0.5625 1.546875l-1.328125 -0.140625q0.140625 -1.484375 1.015625 -2.25q0.890625 -0.78125 2.390625 -0.78125q1.515625 0 2.390625 0.84375q0.875 0.828125 0.875 2.0625q0 0.640625 -0.265625 1.25q-0.25 0.59375 -0.84375 1.265625q-0.59375 0.671875 -1.984375 1.859375q-1.15625 0.96875 -1.484375 1.3125q-0.328125 0.34375 -0.546875 0.703125l5.140625 0zm2.1042328 1.234375l0 -1.46875l1.46875 0l0 1.46875l-1.46875 0zm8.196976 0l-1.28125 0l0 -8.203125q-0.46875 0.4375 -1.21875 0.890625q-0.75 0.4375 -1.359375 0.65625l0 -1.25q1.078125 -0.5 1.890625 -1.21875q0.8125 -0.734375 1.140625 -1.40625l0.828125 0l0 10.53125zm9.994858 -7.921875l-1.28125 0.09375q-0.171875 -0.75 -0.484375 -1.09375q-0.53125 -0.546875 -1.296875 -0.546875q-0.609375 0 -1.078125 0.34375q-0.609375 0.4375 -0.96875 1.296875q-0.34375 0.84375 -0.359375 2.421875q0.46875 -0.71875 1.140625 -1.0625q0.671875 -0.34375 1.40625 -0.34375q1.296875 0 2.203125 0.953125q0.90625 0.953125 0.90625 2.453125q0 0.984375 -0.4375 1.84375q-0.421875 0.84375 -1.171875 1.296875q-0.734375 0.4375 -1.6875 0.4375q-1.609375 0 -2.625 -1.171875q-1.015625 -1.1875 -1.015625 -3.90625q0 -3.046875 1.125 -4.421875q0.984375 -1.203125 2.640625 -1.203125q1.234375 0 2.03125 0.703125q0.796875 0.6875 0.953125 1.90625zm-5.265625 4.515625q0 0.671875 0.28125 1.28125q0.28125 0.609375 0.78125 0.9375q0.515625 0.3125 1.078125 0.3125q0.8125 0 1.390625 -0.65625q0.59375 -0.671875 0.59375 -1.796875q0 -1.09375 -0.578125 -1.71875q-0.578125 -0.625 -1.453125 -0.625q-0.875 0 -1.484375 0.625q-0.609375 0.625 -0.609375 1.640625zm8.713608 -2.28125q-0.796875 -0.296875 -1.1875 -0.84375q-0.390625 -0.546875 -0.390625 -1.296875q0 -1.140625 0.8125 -1.921875q0.828125 -0.78125 2.203125 -0.78125q1.375 0 2.203125 0.796875q0.84375 0.796875 0.84375 1.9375q0 0.734375 -0.390625 1.28125q-0.375 0.53125 -1.15625 0.828125q0.96875 0.3125 1.46875 1.015625q0.5 0.703125 0.5 1.671875q0 1.34375 -0.953125 2.265625q-0.9375 0.90625 -2.5 0.90625q-1.546875 0 -2.5 -0.90625q-0.953125 -0.921875 -0.953125 -2.296875q0 -1.03125 0.515625 -1.71875q0.515625 -0.6875 1.484375 -0.9375zm-0.265625 -2.1875q0 0.75 0.484375 1.21875q0.484375 0.46875 1.25 0.46875q0.734375 0 1.203125 -0.46875q0.484375 -0.46875 0.484375 -1.140625q0 -0.71875 -0.5 -1.1875q-0.484375 -0.484375 -1.203125 -0.484375q-0.734375 0 -1.234375 0.46875q-0.484375 0.46875 -0.484375 1.125zm-0.40625 4.84375q0 0.5625 0.25 1.078125q0.265625 0.5 0.78125 0.796875q0.515625 0.28125 1.109375 0.28125q0.921875 0 1.515625 -0.59375q0.609375 -0.59375 0.609375 -1.515625q0 -0.9375 -0.625 -1.53125q-0.609375 -0.609375 -1.546875 -0.609375q-0.90625 0 -1.5 0.609375q-0.59375 0.59375 -0.59375 1.484375zm7.557358 3.03125l0 -1.46875l1.46875 0l0 1.46875l-1.46875 0zm8.196976 0l-1.28125 0l0 -8.203125q-0.46875 0.4375 -1.21875 0.890625q-0.75 0.4375 -1.359375 0.65625l0 -1.25q1.078125 -0.5 1.890625 -1.21875q0.8125 -0.734375 1.140625 -1.40625l0.828125 0l0 10.53125zm10.072983 -1.234375l0 1.234375l-6.9375 0q-0.015625 -0.46875 0.15625 -0.890625q0.265625 -0.71875 0.84375 -1.40625q0.59375 -0.6875 1.6875 -1.578125q1.71875 -1.40625 2.3125 -2.21875q0.609375 -0.828125 0.609375 -1.5625q0 -0.765625 -0.5625 -1.28125q-0.546875 -0.53125 -1.421875 -0.53125q-0.921875 0 -1.484375 0.5625q-0.5625 0.5625 -0.5625 1.546875l-1.328125 -0.140625q0.140625 -1.484375 1.015625 -2.25q0.890625 -0.78125 2.390625 -0.78125q1.515625 0 2.390625 0.84375q0.875 0.828125 0.875 2.0625q0 0.640625 -0.265625 1.25q-0.25 0.59375 -0.84375 1.265625q-0.59375 0.671875 -1.984375 1.859375q-1.15625 0.96875 -1.484375 1.3125q-0.328125 0.34375 -0.546875 0.703125l5.140625 0zm8.151108 0l0 1.234375l-6.9375 0q-0.015625 -0.46875 0.15625 -0.890625q0.265625 -0.71875 0.84375 -1.40625q0.59375 -0.6875 1.6875 -1.578125q1.71875 -1.40625 2.3125 -2.21875q0.609375 -0.828125 0.609375 -1.5625q0 -0.765625 -0.5625 -1.28125q-0.546875 -0.53125 -1.421875 -0.53125q-0.921875 0 -1.484375 0.5625q-0.5625 0.5625 -0.5625 1.546875l-1.328125 -0.140625q0.140625 -1.484375 1.015625 -2.25q0.890625 -0.78125 2.390625 -0.78125q1.515625 0 2.390625 0.84375q0.875 0.828125 0.875 2.0625q0 0.640625 -0.265625 1.25q-0.25 0.59375 -0.84375 1.265625q-0.59375 0.671875 -1.984375 1.859375q-1.15625 0.96875 -1.484375 1.3125q-0.328125 0.34375 -0.546875 0.703125l5.140625 0zm2.104248 1.234375l0 -1.46875l1.46875 0l0 1.46875l-1.46875 0zm8.196945 0l-1.28125 0l0 -8.203125q-0.46875 0.4375 -1.2187347 0.890625q-0.75 0.4375 -1.359375 0.65625l0 -1.25q1.078125 -0.5 1.8906097 -1.21875q0.8125 -0.734375 1.140625 -1.40625l0.828125 0l0 10.53125zm3.385498 -9.125l0 -1.234375l6.796875 0l0 1.0q-1.0 1.078125 -1.984375 2.84375q-0.984375 1.765625 -1.515625 3.625q-0.390625 1.328125 -0.5 2.890625l-1.328125 0q0.03125 -1.234375 0.484375 -2.984375q0.46875 -1.765625 1.34375 -3.390625q0.875 -1.625 1.84375 -2.75l-5.140625 0zm10.057343 3.4375q-0.796875 -0.296875 -1.1875 -0.84375q-0.390625 -0.546875 -0.390625 -1.296875q0 -1.140625 0.8125 -1.921875q0.828125 -0.78125 2.203125 -0.78125q1.375 0 2.203125 0.796875q0.84375 0.796875 0.84375 1.9375q0 0.734375 -0.390625 1.28125q-0.375 0.53125 -1.15625 0.828125q0.96875 0.3125 1.46875 1.015625q0.5 0.703125 0.5 1.671875q0 1.34375 -0.953125 2.265625q-0.9375 0.90625 -2.5 0.90625q-1.546875 0 -2.5 -0.90625q-0.953125 -0.921875 -0.953125 -2.296875q0 -1.03125 0.515625 -1.71875q0.515625 -0.6875 1.484375 -0.9375zm-0.265625 -2.1875q0 0.75 0.484375 1.21875q0.484375 0.46875 1.25 0.46875q0.734375 0 1.203125 -0.46875q0.484375 -0.46875 0.484375 -1.140625q0 -0.71875 -0.5 -1.1875q-0.484375 -0.484375 -1.203125 -0.484375q-0.734375 0 -1.234375 0.46875q-0.484375 0.46875 -0.484375 1.125zm-0.40625 4.84375q0 0.5625 0.25 1.078125q0.265625 0.5 0.78125 0.796875q0.515625 0.28125 1.109375 0.28125q0.921875 0 1.515625 -0.59375q0.609375 -0.59375 0.609375 -1.515625q0 -0.9375 -0.625 -1.53125q-0.609375 -0.609375 -1.546875 -0.609375q-0.90625 0 -1.5 0.609375q-0.59375 0.59375 -0.59375 1.484375z" fill-rule="nonzero"/><path fill="#cfe2f3" d="m116.732285 356.04724l431.43304 0l0 45.763794l-431.43304 0z" fill-rule="evenodd"/><path stroke="#000000" stroke-width="1.0" stroke-linejoin="round" stroke-linecap="butt" d="m116.732285 356.04724l431.43304 0l0 45.763794l-431.43304 0z" fill-rule="evenodd"/><path fill="#000000" d="m244.82863 374.19287l1.1875 0l0 -3.78125l1.40625 0q0.59375 0.078125 0.078125 0.4375l0 3.34375l2.078125 0l0 1.40625l-2.078125 0l0 4.09375l1.921875 -0.75l0.375 1.265625l-2.296875 0.96875l0 6.375l-1.484375 0l0 -5.859375l-2.3125 0.734375q-0.0625 0.53125 -0.359375 0.234375l-0.53125 -1.640625l3.203125 -0.890625l0 -4.53125l-1.265625 0q-0.15625 1.421875 -0.59375 2.75l-1.40625 -0.515625q0.890625 -2.59375 0.890625 -5.71875l1.484375 0.21875q0.21875 0.234375 -0.15625 0.453125l-0.140625 1.40625zm14.468735 -0.140625l-0.078125 9.125q0 3.9375 -2.21875 3.9375l-2.1562347 0l-0.296875 -1.640625l1.8593597 0q1.328125 0.15625 1.328125 -2.296875l0.078125 -7.71875l-0.8125 0q0.0625 6.53125 -6.4687347 12.03125l-0.953125 -1.34375q5.484375 -4.078125 6.0 -10.6875l-1.1875 0q-0.296875 4.53125 -4.515625 8.015625l-1.046875 -1.265625q3.71875 -2.890625 4.15625 -6.75l-1.1875 0q-0.8125 2.0 -2.078125 3.40625l-1.265625 -0.890625q2.609375 -3.1875 3.203125 -7.34375l1.546875 0.296875q0.296875 0.296875 -0.21875 0.375q-0.21875 1.265625 -0.671875 2.75l6.9843597 0zm8.75 8.90625q-2.890625 1.03125 -5.40625 1.703125q-0.234375 0.59375 -0.453125 0.21875l-0.515625 -1.703125l2.59375 -0.515625l0 -4.09375l-2.0 0l0 -1.40625l2.0 0l0 -3.9375l-2.21875 0l0 -1.40625l5.9375 0l0 1.40625l-2.234375 0l0 3.9375l2.0 0l0 1.40625l-2.0 0l0 3.71875q0.59375 -0.078125 2.15625 -0.59375l0.140625 1.265625zm5.875 -3.5l0 2.15625l4.15625 0l0 1.40625l-4.15625 0l0 2.3125l4.890625 0l0 1.40625l-11.796875 0l0 -1.40625l5.640625 0l0 -2.3125l-4.015625 0l0 -1.40625l4.015625 0l0 -2.15625l-2.671875 0l0 0.96875l-1.265625 0l0 -9.125l9.203125 0l0 8.828125l-1.265625 0l0 -0.671875l-2.734375 0zm2.734375 -3.40625l-2.734375 0l0 2.21875l2.734375 0l0 -2.21875zm0 -3.5625l-2.734375 0l0 2.375l2.734375 0l0 -2.375zm-4.0 2.375l0 -2.375l-2.671875 0l0 2.375l2.671875 0zm0 1.1875l-2.671875 0l0 2.21875l2.671875 0l0 -2.21875zm13.578125 9.953125q2.75 -1.265625 2.75 -5.578125l0 -8.53125l5.78125 0l0 12.84375q0 0.59375 0.53125 0.59375l0.4375 0q0.375 0 0.453125 -0.53125l0.140625 -1.546875l1.5625 0.59375l-0.296875 1.84375q-0.15625 1.046875 -1.1875 1.046875l-1.78125 0q-1.34375 0 -1.34375 -1.265625l0 -12.171875l-2.8125 0l0 7.046875q0 5.34375 -3.1875 7.0625l-1.046875 -1.40625zm-0.4375 1.40625l-1.484375 0l0 -7.578125q-1.046875 2.375 -2.609375 4.078125l-0.953125 -1.625q2.96875 -3.046875 3.40625 -6.3125l-2.96875 0l0 -1.40625l3.125 0l0 -3.9375l1.40625 0q0.734375 0.078125 0.078125 0.453125l0 3.484375l2.59375 0l0 1.40625l-2.59375 0l0 2.234375q1.328125 0.59375 2.671875 1.625l-0.828125 1.703125q-0.890625 -0.953125 -1.84375 -1.78125l0 7.65625z" fill-rule="nonzero"/><path fill="#000000" d="m310.84006 385.84912l-1.640625 0l0 -10.453125q-0.59375 0.5625 -1.5625 1.140625q-0.953125 0.5625 -1.71875 0.84375l0 -1.59375q1.375 -0.640625 2.40625 -1.5625q1.03125 -0.921875 1.453125 -1.78125l1.0625 0l0 13.40625zm4.438202 -3.09375l1.578125 -0.140625q0.203125 1.109375 0.765625 1.609375q0.5625 0.5 1.453125 0.5q0.75 0 1.3125 -0.34375q0.578125 -0.34375 0.9375 -0.921875q0.375 -0.578125 0.609375 -1.5625q0.25 -0.984375 0.25 -2.0q0 -0.109375 0 -0.328125q-0.5 0.78125 -1.359375 1.265625q-0.84375 0.484375 -1.828125 0.484375q-1.671875 0 -2.8125 -1.203125q-1.140625 -1.203125 -1.140625 -3.171875q0 -2.03125 1.1875 -3.265625q1.203125 -1.234375 3.0 -1.234375q1.3125 0 2.390625 0.703125q1.078125 0.703125 1.640625 2.0q0.5625 1.296875 0.5625 3.75q0 2.5625 -0.5625 4.078125q-0.5625 1.515625 -1.65625 2.3125q-1.09375 0.796875 -2.578125 0.796875q-1.5625 0 -2.5625 -0.875q-0.984375 -0.875 -1.1875 -2.453125zm6.71875 -5.890625q0 -1.40625 -0.75 -2.234375q-0.75 -0.828125 -1.8125 -0.828125q-1.09375 0 -1.90625 0.890625q-0.8125 0.890625 -0.8125 2.3125q0 1.28125 0.765625 2.078125q0.78125 0.796875 1.90625 0.796875q1.140625 0 1.875 -0.796875q0.734375 -0.796875 0.734375 -2.21875zm12.031982 7.40625l0 1.578125l-8.828125 0q-0.015625 -0.59375 0.1875 -1.140625q0.34375 -0.90625 1.078125 -1.78125q0.75 -0.875 2.15625 -2.015625q2.171875 -1.78125 2.9375 -2.828125q0.765625 -1.046875 0.765625 -1.96875q0 -0.984375 -0.703125 -1.640625q-0.6875 -0.671875 -1.8125 -0.671875q-1.1875 0 -1.90625 0.71875q-0.703125 0.703125 -0.703125 1.953125l-1.6875 -0.171875q0.171875 -1.890625 1.296875 -2.875q1.140625 -0.984375 3.03125 -0.984375q1.921875 0 3.046875 1.0625q1.125 1.0625 1.125 2.640625q0 0.796875 -0.328125 1.578125q-0.328125 0.78125 -1.09375 1.640625q-0.75 0.84375 -2.53125 2.34375q-1.46875 1.234375 -1.890625 1.6875q-0.421875 0.4375 -0.6875 0.875l6.546875 0zm2.672577 1.578125l0 -1.875l1.875 0l0 1.875l-1.875 0zm10.448944 0l-1.640625 0l0 -10.453125q-0.59375 0.5625 -1.5625 1.140625q-0.953125 0.5625 -1.71875 0.84375l0 -1.59375q1.375 -0.640625 2.40625 -1.5625q1.03125 -0.921875 1.453125 -1.78125l1.0625 0l0 13.40625zm12.703827 -10.078125l-1.625 0.125q-0.21875 -0.96875 -0.625 -1.40625q-0.65625 -0.703125 -1.640625 -0.703125q-0.78125 0 -1.375 0.4375q-0.765625 0.5625 -1.21875 1.65625q-0.453125 1.078125 -0.46875 3.078125q0.59375 -0.890625 1.453125 -1.328125q0.859375 -0.4375 1.796875 -0.4375q1.640625 0 2.78125 1.203125q1.15625 1.203125 1.15625 3.109375q0 1.265625 -0.546875 2.34375q-0.53125 1.078125 -1.484375 1.65625q-0.9375 0.578125 -2.140625 0.578125q-2.0625 0 -3.359375 -1.5q-1.28125 -1.515625 -1.28125 -4.984375q0 -3.875 1.421875 -5.625q1.25 -1.53125 3.375 -1.53125q1.5625 0 2.5625 0.890625q1.015625 0.875 1.21875 2.4375zm-6.6875 5.75q0 0.84375 0.359375 1.625q0.359375 0.765625 1.0 1.171875q0.640625 0.40625 1.359375 0.40625q1.03125 0 1.78125 -0.828125q0.75 -0.84375 0.75 -2.28125q0 -1.390625 -0.734375 -2.1875q-0.734375 -0.796875 -1.859375 -0.796875q-1.109375 0 -1.890625 0.796875q-0.765625 0.796875 -0.765625 2.09375zm11.078857 -2.90625q-1.015625 -0.375 -1.515625 -1.0625q-0.484375 -0.703125 -0.484375 -1.671875q0 -1.453125 1.046875 -2.4375q1.046875 -1.0 2.78125 -1.0q1.75 0 2.8125 1.015625q1.078125 1.015625 1.078125 2.46875q0 0.9375 -0.5 1.625q-0.484375 0.6875 -1.46875 1.0625q1.21875 0.390625 1.859375 1.28125q0.65625 0.890625 0.65625 2.140625q0 1.703125 -1.21875 2.875q-1.21875 1.171875 -3.1875 1.171875q-1.984375 0 -3.203125 -1.171875q-1.203125 -1.171875 -1.203125 -2.921875q0 -1.3125 0.65625 -2.1875q0.671875 -0.875 1.890625 -1.1875zm-0.328125 -2.78125q0 0.9375 0.609375 1.546875q0.609375 0.59375 1.59375 0.59375q0.9375 0 1.546875 -0.59375q0.609375 -0.59375 0.609375 -1.453125q0 -0.90625 -0.625 -1.515625q-0.625 -0.625 -1.5625 -0.625q-0.9375 0 -1.5625 0.609375q-0.609375 0.59375 -0.609375 1.4375zm-0.53125 6.15625q0 0.703125 0.328125 1.359375q0.34375 0.65625 1.0 1.015625q0.65625 0.359375 1.40625 0.359375q1.171875 0 1.9375 -0.75q0.765625 -0.75 0.765625 -1.921875q0 -1.1875 -0.796875 -1.953125q-0.78125 -0.78125 -1.953125 -0.78125q-1.15625 0 -1.921875 0.765625q-0.765625 0.765625 -0.765625 1.90625zm9.625702 3.859375l0 -1.875l1.875 0l0 1.875l-1.875 0zm10.448944 0l-1.640625 0l0 -10.453125q-0.59375 0.5625 -1.5625 1.140625q-0.953125 0.5625 -1.71875 0.84375l0 -1.59375q1.375 -0.640625 2.40625 -1.5625q1.03125 -0.921875 1.453125 -1.78125l1.0625 0l0 13.40625zm12.813202 -1.578125l0 1.578125l-8.828125 0q-0.015625 -0.59375 0.1875 -1.140625q0.34375 -0.90625 1.078125 -1.78125q0.75 -0.875 2.15625 -2.015625q2.171875 -1.78125 2.9375 -2.828125q0.765625 -1.046875 0.765625 -1.96875q0 -0.984375 -0.703125 -1.640625q-0.6875 -0.671875 -1.8125 -0.671875q-1.1875 0 -1.90625 0.71875q-0.703125 0.703125 -0.703125 1.953125l-1.6875 -0.171875q0.171875 -1.890625 1.296875 -2.875q1.140625 -0.984375 3.03125 -0.984375q1.921875 0 3.046875 1.0625q1.125 1.0625 1.125 2.640625q0 0.796875 -0.328125 1.578125q-0.328125 0.78125 -1.09375 1.640625q-0.75 0.84375 -2.53125 2.34375q-1.46875 1.234375 -1.890625 1.6875q-0.421875 0.4375 -0.6875 0.875l6.546875 0zm10.375702 0l0 1.578125l-8.828125 0q-0.015625 -0.59375 0.1875 -1.140625q0.34375 -0.90625 1.078125 -1.78125q0.75 -0.875 2.15625 -2.015625q2.171875 -1.78125 2.9375 -2.828125q0.765625 -1.046875 0.765625 -1.96875q0 -0.984375 -0.703125 -1.640625q-0.6875 -0.671875 -1.8125 -0.671875q-1.1875 0 -1.90625 0.71875q-0.703125 0.703125 -0.703125 1.953125l-1.6875 -0.171875q0.171875 -1.890625 1.296875 -2.875q1.140625 -0.984375 3.03125 -0.984375q1.921875 0 3.046875 1.0625q1.125 1.0625 1.125 2.640625q0 0.796875 -0.328125 1.578125q-0.328125 0.78125 -1.09375 1.640625q-0.75 0.84375 -2.53125 2.34375q-1.46875 1.234375 -1.890625 1.6875q-0.421875 0.4375 -0.6875 0.875l6.546875 0zm2.6726074 1.578125l0 -1.875l1.875 0l0 1.875l-1.875 0zm10.448914 0l-1.640625 0l0 -10.453125q-0.59375 0.5625 -1.5625 1.140625q-0.953125 0.5625 -1.71875 0.84375l0 -1.59375q1.375 -0.640625 2.40625 -1.5625q1.03125 -0.921875 1.453125 -1.78125l1.0625 0l0 13.40625z" fill-rule="nonzero"/><path fill="#cfe2f3" d="m381.0105 273.61942l167.1496 0l0 45.763794l-167.1496 0z" fill-rule="evenodd"/><path stroke="#000000" stroke-width="1.0" stroke-linejoin="round" stroke-linecap="butt" d="m381.0105 273.61942l167.1496 0l0 45.763794l-167.1496 0z" fill-rule="evenodd"/><path fill="#000000" d="m430.90387 301.5813l0 -6.59375l-1.140625 0l0 -1.0l1.140625 0l0 -0.8125q0 -0.765625 0.125 -1.140625q0.1875 -0.5 0.65625 -0.8125q0.46875 -0.3125 1.3125 -0.3125q0.546875 0 1.203125 0.125l-0.1875 1.125q-0.40625 -0.0625 -0.765625 -0.0625q-0.578125 0 -0.828125 0.25q-0.234375 0.25 -0.234375 0.9375l0 0.703125l1.46875 0l0 1.0l-1.46875 0l0 6.59375l-1.28125 0zm8.712585 -0.9375q-0.71875 0.609375 -1.375 0.859375q-0.65625 0.25 -1.421875 0.25q-1.25 0 -1.921875 -0.609375q-0.671875 -0.609375 -0.671875 -1.5625q0 -0.5625 0.25 -1.015625q0.25 -0.46875 0.65625 -0.75q0.421875 -0.28125 0.9375 -0.421875q0.375 -0.09375 1.140625 -0.1875q1.5625 -0.1875 2.296875 -0.453125q0.015625 -0.265625 0.015625 -0.328125q0 -0.796875 -0.375 -1.109375q-0.484375 -0.4375 -1.453125 -0.4375q-0.921875 0 -1.359375 0.328125q-0.421875 0.3125 -0.625 1.109375l-1.265625 -0.171875q0.171875 -0.796875 0.5625 -1.296875q0.390625 -0.5 1.140625 -0.765625q0.75 -0.265625 1.71875 -0.265625q0.984375 0 1.59375 0.234375q0.609375 0.21875 0.890625 0.5625q0.28125 0.34375 0.40625 0.875q0.0625 0.328125 0.0625 1.1875l0 1.71875q0 1.796875 0.078125 2.28125q0.078125 0.46875 0.328125 0.90625l-1.34375 0q-0.203125 -0.40625 -0.265625 -0.9375zm-0.109375 -2.875q-0.703125 0.28125 -2.09375 0.484375q-0.796875 0.109375 -1.125 0.265625q-0.328125 0.140625 -0.515625 0.421875q-0.171875 0.265625 -0.171875 0.59375q0 0.515625 0.390625 0.859375q0.390625 0.34375 1.140625 0.34375q0.734375 0 1.3125 -0.3125q0.59375 -0.328125 0.859375 -0.890625q0.203125 -0.4375 0.203125 -1.296875l0 -0.46875zm8.291748 3.8125l0 -1.109375q-0.890625 1.28125 -2.421875 1.28125q-0.671875 0 -1.25 -0.25q-0.578125 -0.265625 -0.875 -0.65625q-0.28125 -0.390625 -0.390625 -0.953125q-0.078125 -0.375 -0.078125 -1.203125l0 -4.703125l1.28125 0l0 4.203125q0 1.015625 0.078125 1.359375q0.125 0.515625 0.515625 0.8125q0.40625 0.28125 0.984375 0.28125q0.578125 0 1.078125 -0.296875q0.515625 -0.296875 0.71875 -0.8125q0.21875 -0.515625 0.21875 -1.484375l0 -4.0625l1.28125 0l0 7.59375l-1.140625 0zm8.119843 -2.78125l1.265625 0.15625q-0.203125 1.3125 -1.0625 2.0625q-0.84375 0.734375 -2.09375 0.734375q-1.5625 0 -2.515625 -1.015625q-0.9375 -1.03125 -0.9375 -2.921875q0 -1.234375 0.40625 -2.15625q0.40625 -0.921875 1.234375 -1.375q0.84375 -0.46875 1.8125 -0.46875q1.25 0 2.03125 0.625q0.78125 0.625 1.015625 1.765625l-1.265625 0.203125q-0.171875 -0.765625 -0.625 -1.15625q-0.453125 -0.390625 -1.09375 -0.390625q-0.984375 0 -1.59375 0.703125q-0.609375 0.703125 -0.609375 2.203125q0 1.53125 0.578125 2.234375q0.59375 0.6875 1.546875 0.6875q0.75 0 1.265625 -0.453125q0.515625 -0.46875 0.640625 -1.4375zm7.578125 0.328125l1.328125 0.171875q-0.3125 1.171875 -1.171875 1.8125q-0.84375 0.640625 -2.171875 0.640625q-1.671875 0 -2.65625 -1.015625q-0.96875 -1.03125 -0.96875 -2.890625q0 -1.921875 0.984375 -2.96875q1.0 -1.0625 2.578125 -1.0625q1.515625 0 2.484375 1.03125q0.96875 1.03125 0.96875 2.921875q0 0.109375 -0.015625 0.34375l-5.65625 0q0.0625 1.25 0.703125 1.921875q0.640625 0.65625 1.59375 0.65625q0.703125 0 1.203125 -0.359375q0.5 -0.375 0.796875 -1.203125zm-4.234375 -2.078125l4.25 0q-0.09375 -0.953125 -0.484375 -1.4375q-0.625 -0.75 -1.609375 -0.75q-0.875 0 -1.484375 0.59375q-0.609375 0.59375 -0.671875 1.59375zm9.994873 3.375l0.1875 1.140625q-0.546875 0.109375 -0.984375 0.109375q-0.6875 0 -1.078125 -0.21875q-0.390625 -0.21875 -0.546875 -0.578125q-0.15625 -0.359375 -0.15625 -1.515625l0 -4.375l-0.953125 0l0 -1.0l0.953125 0l0 -1.890625l1.28125 -0.765625l0 2.65625l1.296875 0l0 1.0l-1.296875 0l0 4.4375q0 0.546875 0.0625 0.71875q0.078125 0.15625 0.21875 0.25q0.15625 0.078125 0.453125 0.078125q0.203125 0 0.5625 -0.046875z" fill-rule="nonzero"/><path fill="#000000" d="m480.62613 298.06567q-2.171875 -1.109375 -3.75 -2.984375q-1.171875 1.6875 -3.046875 2.984375l6.796875 0zm-3.171875 -3.875q2.875 2.9375 6.453125 3.75l-0.359375 1.359375q-1.8125 -0.53125 -2.625 -1.0625l0 4.453125l-1.171875 0l0 -0.34375l-5.453125 0l0 0.578125l-1.171875 0l0 -4.390625q-1.171875 0.8125 -2.234375 1.109375l-0.515625 -1.234375q4.5625 -1.75 6.140625 -5.09375l1.234375 0.40625q0.234375 0.234375 -0.171875 0.296875l-0.125 0.171875zm-6.265625 0.828125q1.703125 -0.59375 3.34375 -2.40625l0.875 0.828125q0.359375 0.28125 -0.234375 0.28125q-1.875 1.828125 -3.34375 2.40625l-0.640625 -1.109375zm8.5625 6.203125l0 -2.046875l-5.453125 0l0 2.046875l5.453125 0zm-0.234375 -8.3125q1.34375 1.046875 3.5625 1.9375l-0.515625 1.171875q-2.0625 -0.765625 -3.75 -2.234375l0.703125 -0.875zm2.453125 -0.875l-9.953125 0l0 1.6875l-1.171875 0l0 -2.8125l5.4375 0l0 -1.453125l1.296875 0q0.46875 0.046875 0.0625 0.34375l0 1.109375l5.5 0l0 2.703125l-1.171875 0l0 -1.578125zm10.484375 1.40625q0.46875 0.109375 0 0.34375q-0.109375 0.53125 -0.28125 1.0l6.203125 0l0 1.109375l-4.453125 0q2.046875 1.40625 5.046875 1.9375l-0.296875 1.234375q-1.171875 -0.234375 -1.640625 -0.46875l0 3.984375l-1.171875 0l0 -0.640625l-2.046875 0l0 0.8125l-1.171875 0l0 -4.6875l3.046875 0q-1.703125 -0.703125 -3.109375 -2.171875l-0.9375 0q-0.9375 1.34375 -2.515625 2.171875l2.34375 0l0 4.578125l-1.171875 0l0 -0.703125l-2.0 0l0 0.875l-1.171875 0l0 -3.875q-0.53125 0.296875 -1.578125 0.53125l-0.40625 -1.234375q3.15625 -0.46875 5.15625 -2.34375l-4.578125 0l0 -1.109375l5.28125 0q0.34375 -0.640625 0.46875 -1.40625l0.984375 0.0625zm-1.171875 0.28125l-1.171875 0l0 -0.28125l-2.28125 0l0 0.515625l-1.171875 0l0 -4.09375l4.625 0l0 3.859375zm1.46875 -3.859375l4.6875 0l0 3.859375l-1.171875 0l0 -0.28125l-2.34375 0l0 0.515625l-1.171875 0l0 -4.09375zm3.109375 11.125l0 -1.984375l-2.046875 0l0 1.984375l2.046875 0zm-5.75 -8.484375l0 -1.703125l-2.28125 0l0 1.703125l2.28125 0zm6.15625 -1.703125l-2.34375 0l0 1.703125l2.34375 0l0 -1.703125zm-5.96875 10.1875l0 -1.984375l-2.0 0l0 1.984375l2.0 0z" fill-rule="nonzero"/><path fill="#000000" fill-opacity="0.0" d="m548.1601 296.5013l25.005249 0l0 82.4252l-24.94226 0" fill-rule="evenodd"/><path stroke="#000000" stroke-width="1.0" stroke-linejoin="round" stroke-linecap="butt" d="m548.1601 296.5013l25.005249 0l0 82.4252l-24.94226 0" fill-rule="evenodd"/><path fill="#000000" fill-opacity="0.0" d="m548.16534 321.36746l143.81104 0l0 32.6929l-143.81104 0z" fill-rule="evenodd"/><path fill="#000000" d="m563.1341 335.40308l-1.046875 0.078125q-0.140625 -0.625 -0.390625 -0.90625q-0.4375 -0.453125 -1.0625 -0.453125q-0.5 0 -0.890625 0.28125q-0.484375 0.375 -0.78125 1.078125q-0.28125 0.6875 -0.296875 1.96875q0.375 -0.578125 0.921875 -0.859375q0.5625 -0.28125 1.171875 -0.28125q1.046875 0 1.78125 0.78125q0.75 0.78125 0.75 2.0q0 0.8125 -0.359375 1.515625q-0.34375 0.6875 -0.953125 1.0625q-0.609375 0.359375 -1.375 0.359375q-1.328125 0 -2.15625 -0.96875q-0.828125 -0.96875 -0.828125 -3.1875q0 -2.5 0.921875 -3.625q0.796875 -0.984375 2.15625 -0.984375q1.015625 0 1.65625 0.578125q0.65625 0.5625 0.78125 1.5625zm-4.296875 3.703125q0 0.546875 0.21875 1.046875q0.234375 0.484375 0.640625 0.75q0.421875 0.265625 0.890625 0.265625q0.65625 0 1.140625 -0.53125q0.484375 -0.546875 0.484375 -1.46875q0 -0.890625 -0.484375 -1.40625q-0.46875 -0.515625 -1.1875 -0.515625q-0.71875 0 -1.21875 0.515625q-0.484375 0.515625 -0.484375 1.34375zm10.970703 -3.703125l-1.046875 0.078125q-0.140625 -0.625 -0.390625 -0.90625q-0.4375 -0.453125 -1.0625 -0.453125q-0.5 0 -0.890625 0.28125q-0.484375 0.375 -0.78125 1.078125q-0.28125 0.6875 -0.296875 1.96875q0.375 -0.578125 0.921875 -0.859375q0.5625 -0.28125 1.171875 -0.28125q1.046875 0 1.78125 0.78125q0.75 0.78125 0.75 2.0q0 0.8125 -0.359375 1.515625q-0.34375 0.6875 -0.953125 1.0625q-0.609375 0.359375 -1.375 0.359375q-1.328125 0 -2.15625 -0.96875q-0.828125 -0.96875 -0.828125 -3.1875q0 -2.5 0.921875 -3.625q0.796875 -0.984375 2.15625 -0.984375q1.015625 0 1.65625 0.578125q0.65625 0.5625 0.78125 1.5625zm-4.296875 3.703125q0 0.546875 0.21875 1.046875q0.234375 0.484375 0.640625 0.75q0.421875 0.265625 0.890625 0.265625q0.65625 0 1.140625 -0.53125q0.484375 -0.546875 0.484375 -1.46875q0 -0.890625 -0.484375 -1.40625q-0.46875 -0.515625 -1.1875 -0.515625q-0.71875 0 -1.21875 0.515625q-0.484375 0.515625 -0.484375 1.34375zm5.501953 0.53125l1.109375 -0.09375q0.125 0.8125 0.5625 1.21875q0.453125 0.40625 1.09375 0.40625q0.75 0 1.28125 -0.578125q0.53125 -0.578125 0.53125 -1.515625q0 -0.90625 -0.515625 -1.421875q-0.5 -0.53125 -1.328125 -0.53125q-0.5 0 -0.921875 0.234375q-0.40625 0.234375 -0.640625 0.59375l-0.984375 -0.125l0.828125 -4.40625l4.28125 0l0 1.0l-3.4375 0l-0.453125 2.3125q0.765625 -0.546875 1.609375 -0.546875q1.125 0 1.890625 0.78125q0.78125 0.78125 0.78125 2.015625q0 1.15625 -0.671875 2.015625q-0.828125 1.03125 -2.25 1.03125q-1.171875 0 -1.921875 -0.65625q-0.734375 -0.65625 -0.84375 -1.734375zm6.673828 -0.015625l1.0625 -0.140625q0.171875 0.890625 0.609375 1.296875q0.4375 0.390625 1.0625 0.390625q0.75 0 1.265625 -0.515625q0.515625 -0.515625 0.515625 -1.28125q0 -0.71875 -0.484375 -1.1875q-0.46875 -0.484375 -1.203125 -0.484375q-0.296875 0 -0.75 0.125l0.125 -0.9375q0.109375 0.015625 0.171875 0.015625q0.671875 0 1.203125 -0.34375q0.546875 -0.359375 0.546875 -1.09375q0 -0.578125 -0.390625 -0.953125q-0.390625 -0.390625 -1.015625 -0.390625q-0.609375 0 -1.03125 0.390625q-0.40625 0.390625 -0.515625 1.15625l-1.0625 -0.1875q0.1875 -1.046875 0.875 -1.625q0.6875 -0.59375 1.703125 -0.59375q0.703125 0 1.296875 0.3125q0.59375 0.296875 0.90625 0.8125q0.3125 0.515625 0.3125 1.109375q0 0.546875 -0.296875 1.015625q-0.296875 0.453125 -0.875 0.71875q0.75 0.171875 1.171875 0.734375q0.421875 0.546875 0.421875 1.390625q0 1.125 -0.828125 1.90625q-0.8125 0.78125 -2.0625 0.78125q-1.125 0 -1.875 -0.671875q-0.75 -0.6875 -0.859375 -1.75zm7.236328 2.265625l0 -1.203125l1.203125 0l0 1.203125q0 0.65625 -0.234375 1.0625q-0.234375 0.421875 -0.734375 0.640625l-0.296875 -0.453125q0.328125 -0.140625 0.484375 -0.4375q0.15625 -0.28125 0.1875 -0.8125l-0.609375 0zm2.9277344 -1.984375l1.015625 -0.09375q0.125 0.71875 0.484375 1.046875q0.375 0.3125 0.9375 0.3125q0.484375 0 0.84375 -0.21875q0.375 -0.234375 0.609375 -0.59375q0.234375 -0.375 0.390625 -1.0q0.15625 -0.640625 0.15625 -1.296875q0 -0.078125 0 -0.21875q-0.3125 0.5 -0.859375 0.828125q-0.546875 0.3125 -1.1875 0.3125q-1.078125 0 -1.8125 -0.765625q-0.734375 -0.78125 -0.734375 -2.046875q0 -1.3125 0.765625 -2.109375q0.78125 -0.796875 1.9375 -0.796875q0.828125 0 1.515625 0.453125q0.703125 0.453125 1.0625 1.296875q0.359375 0.828125 0.359375 2.40625q0 1.640625 -0.359375 2.625q-0.34375 0.96875 -1.0625 1.484375q-0.703125 0.5 -1.640625 0.5q-1.015625 0 -1.65625 -0.546875q-0.640625 -0.5625 -0.765625 -1.578125zm4.3125 -3.796875q0 -0.90625 -0.484375 -1.4375q-0.46875 -0.53125 -1.15625 -0.53125q-0.703125 0 -1.234375 0.578125q-0.515625 0.5625 -0.515625 1.484375q0 0.8125 0.5 1.328125q0.5 0.515625 1.21875 0.515625q0.734375 0 1.203125 -0.515625q0.46875 -0.515625 0.46875 -1.421875zm2.2050781 3.515625l1.0625 -0.140625q0.171875 0.890625 0.609375 1.296875q0.4375 0.390625 1.0625 0.390625q0.75 0 1.265625 -0.515625q0.515625 -0.515625 0.515625 -1.28125q0 -0.71875 -0.484375 -1.1875q-0.46875 -0.484375 -1.203125 -0.484375q-0.296875 0 -0.75 0.125l0.125 -0.9375q0.109375 0.015625 0.171875 0.015625q0.671875 0 1.203125 -0.34375q0.546875 -0.359375 0.546875 -1.09375q0 -0.578125 -0.390625 -0.953125q-0.390625 -0.390625 -1.015625 -0.390625q-0.609375 0 -1.03125 0.390625q-0.40625 0.390625 -0.515625 1.15625l-1.0625 -0.1875q0.1875 -1.046875 0.875 -1.625q0.6875 -0.59375 1.703125 -0.59375q0.703125 0 1.296875 0.3125q0.59375 0.296875 0.90625 0.8125q0.3125 0.515625 0.3125 1.109375q0 0.546875 -0.296875 1.015625q-0.296875 0.453125 -0.875 0.71875q0.75 0.171875 1.171875 0.734375q0.421875 0.546875 0.421875 1.390625q0 1.125 -0.828125 1.90625q-0.8125 0.78125 -2.0625 0.78125q-1.125 0 -1.875 -0.671875q-0.75 -0.6875 -0.859375 -1.75zm6.673828 -1.96875q0 -1.53125 0.3125 -2.453125q0.3125 -0.9375 0.921875 -1.4375q0.625 -0.5 1.5625 -0.5q0.6875 0 1.203125 0.28125q0.53125 0.28125 0.875 0.8125q0.34375 0.515625 0.53125 1.265625q0.1875 0.75 0.1875 2.03125q0 1.515625 -0.3125 2.4375q-0.296875 0.921875 -0.921875 1.4375q-0.609375 0.5 -1.5625 0.5q-1.234375 0 -1.953125 -0.890625q-0.84375 -1.0625 -0.84375 -3.484375zm1.078125 0q0 2.109375 0.5 2.8125q0.5 0.703125 1.21875 0.703125q0.734375 0 1.21875 -0.703125q0.5 -0.703125 0.5 -2.8125q0 -2.125 -0.5 -2.8125q-0.484375 -0.703125 -1.234375 -0.703125q-0.71875 0 -1.15625 0.609375q-0.546875 0.78125 -0.546875 2.90625zm11.142578 3.21875l0 1.015625l-5.6875 0q0 -0.375 0.125 -0.734375q0.21875 -0.578125 0.6875 -1.140625q0.484375 -0.5625 1.390625 -1.296875q1.40625 -1.15625 1.890625 -1.828125q0.5 -0.671875 0.5 -1.265625q0 -0.625 -0.453125 -1.046875q-0.453125 -0.4375 -1.171875 -0.4375q-0.765625 0 -1.21875 0.453125q-0.453125 0.453125 -0.46875 1.265625l-1.078125 -0.109375q0.109375 -1.21875 0.828125 -1.84375q0.734375 -0.640625 1.96875 -0.640625q1.234375 0 1.953125 0.6875q0.71875 0.6875 0.71875 1.703125q0 0.515625 -0.21875 1.015625q-0.203125 0.484375 -0.703125 1.046875q-0.484375 0.546875 -1.609375 1.5q-0.953125 0.796875 -1.234375 1.09375q-0.265625 0.28125 -0.4375 0.5625l4.21875 0z" fill-rule="nonzero"/><path fill="#000000" d="m618.6712 340.57495q-1.828125 0.5625 -3.65625 0.984375q-0.046875 0.328125 -0.234375 0.140625l-0.1875 -1.125l2.0625 -0.375l0.609375 -4.59375l0.984375 0.09375q0.234375 0.140625 -0.09375 0.28125l-0.609375 4.03125l1.125 -0.28125l0 0.84375zm-3.28125 -1.125q-0.1875 -1.78125 -0.609375 -3.1875l0.796875 -0.234375q0.515625 1.359375 0.65625 3.140625l-0.84375 0.28125zm8.34375 3.46875l-0.234375 -0.890625l0.375 0q0.1875 0 0.1875 -0.1875l0 -3.28125l-0.890625 0l0 4.03125l-0.796875 0l0 -4.03125l-0.796875 0l0 4.03125l-0.796875 0l0 -4.03125l-0.796875 0l0 4.3125l-0.796875 0l0 -5.0625l1.921875 0l0.375 -1.03125l-2.71875 0l0 -0.75l6.515625 0l0 0.75l-2.859375 0l-0.375 1.03125l2.8125 0l0 4.453125q0 0.65625 -0.65625 0.65625l-0.46875 0zm-5.25 -7.59375l-3.796875 0l0 -0.890625l1.5 0l0 -1.96875l0.890625 0q0.375 0.046875 0.046875 0.28125l0 1.6875l1.359375 0l0 0.890625zm3.84375 -3.140625q0.375 0.046875 0.046875 0.28125l0 1.96875l1.453125 0l0 -1.734375l0.75 0q0.375 0.046875 0.046875 0.28125l0 2.203125l-5.25 0l0 -2.484375l0.75 0q0.375 0.046875 0.046875 0.28125l0 1.453125l1.40625 0l0 -2.25l0.75 0zm12.421875 8.8125l-5.859375 0l0 0.890625l-1.078125 0l0 -8.34375l8.015625 0l0 8.15625l-1.078125 0l0 -0.703125zm-5.859375 -6.421875l0 5.390625l5.859375 0l0 -5.390625l-5.859375 0zm12.5625 7.359375q3.09375 -0.796875 3.5625 -3.5625l-2.8125 0l0 -0.890625l0.890625 0l0 -3.328125l2.015625 0l0 -1.96875l0.890625 0q0.375 0.046875 0.046875 0.28125l0 1.6875l2.109375 0l0 3.328125l0.984375 0l0 0.890625l-3.0 0q0.890625 2.34375 3.375 3.28125l-0.515625 0.984375q-2.34375 -1.078125 -3.328125 -3.28125q-0.84375 2.625 -3.703125 3.5625l-0.515625 -0.984375zm3.65625 -6.890625l-1.078125 0l0 2.4375l1.078125 0l0 -2.4375zm2.109375 2.4375l0 -2.4375l-1.171875 0l0 2.4375l1.171875 0zm-8.390625 4.265625l0 -8.53125l3.09375 0l0 7.78125l-2.15625 0l0 0.75l-0.9375 0zm2.15625 -5.203125l0 -2.4375l-1.21875 0l0 2.4375l1.21875 0zm0 3.5625l0 -2.671875l-1.21875 0l0 2.671875l1.21875 0zm16.21875 -3.234375q0.703125 0.9375 1.171875 2.578125l-0.890625 0.46875q-0.28125 -1.453125 -1.03125 -2.578125l0.75 -0.46875zm-1.78125 5.203125q0 0.703125 -0.609375 0.703125l-1.078125 0l-0.1875 -0.75l0.9375 0q0.140625 0 0.140625 -0.1875l0 -2.15625q-1.40625 1.546875 -3.796875 2.671875l-0.328125 -0.84375q2.4375 -1.078125 3.796875 -2.71875l-3.140625 0.5625q-0.1875 0.375 -0.328125 0.046875l-0.234375 -0.984375l0.9375 -0.046875l0 -4.921875l1.265625 0l0.28125 -1.265625l0.984375 0.09375q0.328125 0.046875 -0.046875 0.28125l-0.328125 0.890625l1.734375 0l0 3.984375l0.609375 0.46875q-0.234375 0.375 -0.609375 0.890625l0 3.28125zm4.40625 -0.09375q0 0.75 -0.75 0.75l-1.171875 0l-0.1875 -0.890625l0.984375 0q0.1875 0 0.1875 -0.1875l0 -5.859375l-3.0 0l0 -0.890625l3.0 0l0 -2.390625l0.890625 0q0.375 0.046875 0.046875 0.28125l0 2.109375l1.5 0l0 0.890625l-1.5 0l0 6.1875zm-5.203125 -3.9375l0 -0.84375l-2.296875 0l0 1.078125l2.296875 -0.234375zm-2.296875 -2.34375l0 0.75l2.296875 0l0 -0.75l-2.296875 0zm2.296875 -0.75l0 -0.75l-2.296875 0l0 0.75l2.296875 0z" fill-rule="nonzero"/><path fill="#cfe2f3" d="m116.732285 165.96326l103.65355 0l0 25.228348l-103.65355 0z" fill-rule="evenodd"/><path stroke="#000000" stroke-width="1.0" stroke-linejoin="round" stroke-linecap="butt" d="m116.732285 165.96326l103.65355 0l0 25.228348l-103.65355 0z" fill-rule="evenodd"/><path fill="#000000" d="m126.138535 179.98805q0 -1.734375 0.953125 -2.5625q0.796875 -0.6875 1.953125 -0.6875q1.28125 0 2.09375 0.84375q0.828125 0.828125 0.828125 2.3125q0 1.203125 -0.359375 1.890625q-0.359375 0.6875 -1.0625 1.078125q-0.6875 0.375 -1.5 0.375q-1.296875 0 -2.109375 -0.828125q-0.796875 -0.84375 -0.796875 -2.421875zm1.078125 0q0 1.1875 0.515625 1.78125q0.53125 0.59375 1.3125 0.59375q0.796875 0 1.3125 -0.59375q0.515625 -0.59375 0.515625 -1.8125q0 -1.15625 -0.53125 -1.75q-0.515625 -0.59375 -1.296875 -0.59375q-0.78125 0 -1.3125 0.59375q-0.515625 0.578125 -0.515625 1.78125zm7.705078 3.109375l-2.359375 -6.21875l1.109375 0l1.34375 3.71875q0.203125 0.609375 0.390625 1.25q0.140625 -0.484375 0.390625 -1.171875l1.390625 -3.796875l1.078125 0l-2.359375 6.21875l-0.984375 0zm3.859375 -1.859375l1.03125 -0.15625q0.09375 0.625 0.484375 0.953125q0.40625 0.328125 1.140625 0.328125q0.71875 0 1.0625 -0.28125q0.359375 -0.296875 0.359375 -0.703125q0 -0.359375 -0.3125 -0.5625q-0.21875 -0.140625 -1.078125 -0.359375q-1.15625 -0.296875 -1.609375 -0.5q-0.4375 -0.21875 -0.671875 -0.59375q-0.234375 -0.375 -0.234375 -0.84375q0 -0.40625 0.1875 -0.765625q0.1875 -0.359375 0.515625 -0.59375q0.25 -0.171875 0.671875 -0.296875q0.421875 -0.125 0.921875 -0.125q0.71875 0 1.265625 0.21875q0.5625 0.203125 0.828125 0.5625q0.265625 0.359375 0.359375 0.953125l-1.03125 0.140625q-0.0625 -0.46875 -0.40625 -0.734375q-0.328125 -0.28125 -0.953125 -0.28125q-0.71875 0 -1.03125 0.25q-0.3125 0.234375 -0.3125 0.5625q0 0.203125 0.125 0.359375q0.140625 0.171875 0.40625 0.28125q0.15625 0.0625 0.9375 0.265625q1.125 0.3125 1.5625 0.5q0.4375 0.1875 0.6875 0.546875q0.25 0.359375 0.25 0.90625q0 0.53125 -0.3125 1.0q-0.296875 0.453125 -0.875 0.71875q-0.578125 0.25 -1.3125 0.25q-1.21875 0 -1.859375 -0.5q-0.625 -0.515625 -0.796875 -1.5zm15.005859 0.84375l0 1.015625l-5.6875 0q0 -0.375 0.125 -0.734375q0.21875 -0.578125 0.6875 -1.140625q0.484375 -0.5625 1.390625 -1.296875q1.40625 -1.15625 1.890625 -1.828125q0.5 -0.671875 0.5 -1.265625q0 -0.625 -0.453125 -1.046875q-0.453125 -0.4375 -1.171875 -0.4375q-0.765625 0 -1.21875 0.453125q-0.453125 0.453125 -0.46875 1.265625l-1.078125 -0.109375q0.109375 -1.21875 0.828125 -1.84375q0.734375 -0.640625 1.96875 -0.640625q1.234375 0 1.953125 0.6875q0.71875 0.6875 0.71875 1.703125q0 0.515625 -0.21875 1.015625q-0.203125 0.484375 -0.703125 1.046875q-0.484375 0.546875 -1.609375 1.5q-0.953125 0.796875 -1.234375 1.09375q-0.265625 0.28125 -0.4375 0.5625l4.21875 0zm1.7207031 1.015625l0 -1.203125l1.203125 0l0 1.203125l-1.203125 0zm6.7089844 0l-1.046875 0l0 -6.71875q-0.390625 0.359375 -1.015625 0.734375q-0.609375 0.359375 -1.09375 0.53125l0 -1.015625q0.875 -0.421875 1.53125 -1.0q0.671875 -0.59375 0.953125 -1.15625l0.671875 0l0 8.625zm5.783203 0l-1.046875 0l0 -6.71875q-0.390625 0.359375 -1.015625 0.734375q-0.609375 0.359375 -1.09375 0.53125l0 -1.015625q0.875 -0.421875 1.53125 -1.0q0.671875 -0.59375 0.953125 -1.15625l0.671875 0l0 8.625zm3.2988281 0l0 -1.203125l1.203125 0l0 1.203125l-1.203125 0zm2.8964844 -1.984375l1.015625 -0.09375q0.125 0.71875 0.484375 1.046875q0.375 0.3125 0.9375 0.3125q0.484375 0 0.84375 -0.21875q0.375 -0.234375 0.609375 -0.59375q0.234375 -0.375 0.390625 -1.0q0.15625 -0.640625 0.15625 -1.296875q0 -0.078125 0 -0.21875q-0.3125 0.5 -0.859375 0.828125q-0.546875 0.3125 -1.1875 0.3125q-1.078125 0 -1.8125 -0.765625q-0.734375 -0.78125 -0.734375 -2.046875q0 -1.3125 0.765625 -2.109375q0.78125 -0.796875 1.9375 -0.796875q0.828125 0 1.515625 0.453125q0.703125 0.453125 1.0625 1.296875q0.359375 0.828125 0.359375 2.40625q0 1.640625 -0.359375 2.625q-0.34375 0.96875 -1.0625 1.484375q-0.703125 0.5 -1.640625 0.5q-1.015625 0 -1.65625 -0.546875q-0.640625 -0.5625 -0.765625 -1.578125zm4.3125 -3.796875q0 -0.90625 -0.484375 -1.4375q-0.46875 -0.53125 -1.15625 -0.53125q-0.703125 0 -1.234375 0.578125q-0.515625 0.5625 -0.515625 1.484375q0 0.8125 0.5 1.328125q0.5 0.515625 1.21875 0.515625q0.734375 0 1.203125 -0.515625q0.46875 -0.515625 0.46875 -1.421875zm2.2050781 1.546875q0 -1.53125 0.3125 -2.453125q0.3125 -0.9375 0.921875 -1.4375q0.625 -0.5 1.5625 -0.5q0.6875 0 1.203125 0.28125q0.53125 0.28125 0.875 0.8125q0.34375 0.515625 0.53125 1.265625q0.1875 0.75 0.1875 2.03125q0 1.515625 -0.3125 2.4375q-0.296875 0.921875 -0.921875 1.4375q-0.609375 0.5 -1.5625 0.5q-1.234375 0 -1.953125 -0.890625q-0.84375 -1.0625 -0.84375 -3.484375zm1.078125 0q0 2.109375 0.5 2.8125q0.5 0.703125 1.21875 0.703125q0.734375 0 1.21875 -0.703125q0.5 -0.703125 0.5 -2.8125q0 -2.125 -0.5 -2.8125q-0.484375 -0.703125 -1.234375 -0.703125q-0.71875 0 -1.15625 0.609375q-0.546875 0.78125 -0.546875 2.90625z" fill-rule="nonzero"/><path fill="#cfe2f3" d="m116.732285 246.96588l103.65355 0l0 25.228333l-103.65355 0z" fill-rule="evenodd"/><path stroke="#000000" stroke-width="1.0" stroke-linejoin="round" stroke-linecap="butt" d="m116.732285 246.96588l103.65355 0l0 25.228333l-103.65355 0z" fill-rule="evenodd"/><path fill="#000000" d="m126.138535 260.99066q0 -1.734375 0.953125 -2.5625q0.796875 -0.6875 1.953125 -0.6875q1.28125 0 2.09375 0.84375q0.828125 0.828125 0.828125 2.3125q0 1.203125 -0.359375 1.890625q-0.359375 0.6875 -1.0625 1.078125q-0.6875 0.375 -1.5 0.375q-1.296875 0 -2.109375 -0.828125q-0.796875 -0.84375 -0.796875 -2.421875zm1.078125 0q0 1.1875 0.515625 1.78125q0.53125 0.59375 1.3125 0.59375q0.796875 0 1.3125 -0.59375q0.515625 -0.59375 0.515625 -1.8125q0 -1.15625 -0.53125 -1.75q-0.515625 -0.59375 -1.296875 -0.59375q-0.78125 0 -1.3125 0.59375q-0.515625 0.578125 -0.515625 1.78125zm7.705078 3.109375l-2.359375 -6.21875l1.109375 0l1.34375 3.71875q0.203125 0.609375 0.390625 1.25q0.140625 -0.484375 0.390625 -1.171875l1.390625 -3.796875l1.078125 0l-2.359375 6.21875l-0.984375 0zm3.859375 -1.859375l1.03125 -0.15625q0.09375 0.625 0.484375 0.953125q0.40625 0.328125 1.140625 0.328125q0.71875 0 1.0625 -0.28125q0.359375 -0.296875 0.359375 -0.703125q0 -0.359375 -0.3125 -0.5625q-0.21875 -0.140625 -1.078125 -0.359375q-1.15625 -0.296875 -1.609375 -0.5q-0.4375 -0.21875 -0.671875 -0.59375q-0.234375 -0.375 -0.234375 -0.84375q0 -0.40625 0.1875 -0.765625q0.1875 -0.359375 0.515625 -0.59375q0.25 -0.171875 0.671875 -0.296875q0.421875 -0.125 0.921875 -0.125q0.71875 0 1.265625 0.21875q0.5625 0.203125 0.828125 0.5625q0.265625 0.359375 0.359375 0.953125l-1.03125 0.140625q-0.0625 -0.46875 -0.40625 -0.734375q-0.328125 -0.28125 -0.953125 -0.28125q-0.71875 0 -1.03125 0.25q-0.3125 0.234375 -0.3125 0.5625q0 0.203125 0.125 0.359375q0.140625 0.171875 0.40625 0.28125q0.15625 0.0625 0.9375 0.265625q1.125 0.3125 1.5625 0.5q0.4375 0.1875 0.6875 0.546875q0.25 0.359375 0.25 0.90625q0 0.53125 -0.3125 1.0q-0.296875 0.453125 -0.875 0.71875q-0.578125 0.25 -1.3125 0.25q-1.21875 0 -1.859375 -0.5q-0.625 -0.515625 -0.796875 -1.5zm15.005859 0.84375l0 1.015625l-5.6875 0q0 -0.375 0.125 -0.734375q0.21875 -0.578125 0.6875 -1.140625q0.484375 -0.5625 1.390625 -1.296875q1.40625 -1.15625 1.890625 -1.828125q0.5 -0.671875 0.5 -1.265625q0 -0.625 -0.453125 -1.046875q-0.453125 -0.4375 -1.171875 -0.4375q-0.765625 0 -1.21875 0.453125q-0.453125 0.453125 -0.46875 1.265625l-1.078125 -0.109375q0.109375 -1.21875 0.828125 -1.84375q0.734375 -0.64060974 1.96875 -0.64060974q1.234375 0 1.953125 0.68748474q0.71875 0.6875 0.71875 1.703125q0 0.515625 -0.21875 1.015625q-0.203125 0.484375 -0.703125 1.046875q-0.484375 0.546875 -1.609375 1.5q-0.953125 0.796875 -1.234375 1.09375q-0.265625 0.28125 -0.4375 0.5625l4.21875 0zm1.7207031 1.015625l0 -1.203125l1.203125 0l0 1.203125l-1.203125 0zm6.7089844 0l-1.046875 0l0 -6.71875q-0.390625 0.359375 -1.015625 0.734375q-0.609375 0.359375 -1.09375 0.53125l0 -1.015625q0.875 -0.421875 1.53125 -1.0q0.671875 -0.59375 0.953125 -1.1562347l0.671875 0l0 8.624985zm5.783203 0l-1.046875 0l0 -6.71875q-0.390625 0.359375 -1.015625 0.734375q-0.609375 0.359375 -1.09375 0.53125l0 -1.015625q0.875 -0.421875 1.53125 -1.0q0.671875 -0.59375 0.953125 -1.1562347l0.671875 0l0 8.624985zm3.2988281 0l0 -1.203125l1.203125 0l0 1.203125l-1.203125 0zm2.8964844 -1.984375l1.015625 -0.09375q0.125 0.71875 0.484375 1.046875q0.375 0.3125 0.9375 0.3125q0.484375 0 0.84375 -0.21875q0.375 -0.234375 0.609375 -0.59375q0.234375 -0.375 0.390625 -1.0q0.15625 -0.640625 0.15625 -1.296875q0 -0.078125 0 -0.21875q-0.3125 0.5 -0.859375 0.828125q-0.546875 0.3125 -1.1875 0.3125q-1.078125 0 -1.8125 -0.765625q-0.734375 -0.78125 -0.734375 -2.046875q0 -1.3125 0.765625 -2.109375q0.78125 -0.79685974 1.9375 -0.79685974q0.828125 0 1.515625 0.453125q0.703125 0.45310974 1.0625 1.2968597q0.359375 0.828125 0.359375 2.40625q0 1.640625 -0.359375 2.625q-0.34375 0.96875 -1.0625 1.484375q-0.703125 0.5 -1.640625 0.5q-1.015625 0 -1.65625 -0.546875q-0.640625 -0.5625 -0.765625 -1.578125zm4.3125 -3.796875q0 -0.90625 -0.484375 -1.4375q-0.46875 -0.53125 -1.15625 -0.53125q-0.703125 0 -1.234375 0.578125q-0.515625 0.5625 -0.515625 1.484375q0 0.8125 0.5 1.328125q0.5 0.515625 1.21875 0.515625q0.734375 0 1.203125 -0.515625q0.46875 -0.515625 0.46875 -1.421875zm2.2050781 1.546875q0 -1.53125 0.3125 -2.453125q0.3125 -0.9375 0.921875 -1.4374847q0.625 -0.5 1.5625 -0.5q0.6875 0 1.203125 0.28125q0.53125 0.28123474 0.875 0.81248474q0.34375 0.515625 0.53125 1.265625q0.1875 0.75 0.1875 2.03125q0 1.515625 -0.3125 2.4375q-0.296875 0.921875 -0.921875 1.4375q-0.609375 0.5 -1.5625 0.5q-1.234375 0 -1.953125 -0.890625q-0.84375 -1.0625 -0.84375 -3.484375zm1.078125 0q0 2.109375 0.5 2.8125q0.5 0.703125 1.21875 0.703125q0.734375 0 1.21875 -0.703125q0.5 -0.703125 0.5 -2.8125q0 -2.125 -0.5 -2.8125q-0.484375 -0.703125 -1.234375 -0.703125q-0.71875 0 -1.15625 0.609375q-0.546875 0.78125 -0.546875 2.90625z" fill-rule="nonzero"/></g></svg>